PathFileType	4	(X/Y/Z)	/Users/itak/Documents/Research/Walk-IL/dataset/trc/00279_00010.trc
DataRate	CameraRate	NumFrames	NumMarkers	Units	OrigDataRate	OrigDataStartFrame	OrigNumFrames
100.000000	100.000000	4	53	mm	100.000000	0	752
Frame#	Time	RPSI			LPSI			L3			STRN			T10			C7			CLAV			RBAK			LBAK			LSHO			LUPA			LAEL			LAOL			LWTS			LWPS			LFRA			LIFD			LHPS			LHTS			RSHO			RUPA			RAEL			RAOL			RWTS			RWPS			RFRA			RIFD			RHTS			RHPS			RBHD			LFHD			RFHD			LBHD			LHIP			RHIP			RASI			LASI			LKNE			LTHI			LANK			LTIP			LTOE			LMT1			LMT5			LHEE			RKNE			RTHI			RANK			RTIP			RTOE			RMT1			RMT5			RHEE			
		X1	Y1	Z1	X2	Y2	Z2	X3	Y3	Z3	X4	Y4	Z4	X5	Y5	Z5	X6	Y6	Z6	X7	Y7	Z7	X8	Y8	Z8	X9	Y9	Z9	X10	Y10	Z10	X11	Y11	Z11	X12	Y12	Z12	X13	Y13	Z13	X14	Y14	Z14	X15	Y15	Z15	X16	Y16	Z16	X17	Y17	Z17	X18	Y18	Z18	X19	Y19	Z19	X20	Y20	Z20	X21	Y21	Z21	X22	Y22	Z22	X23	Y23	Z23	X24	Y24	Z24	X25	Y25	Z25	X26	Y26	Z26	X27	Y27	Z27	X28	Y28	Z28	X29	Y29	Z29	X30	Y30	Z30	X31	Y31	Z31	X32	Y32	Z32	X33	Y33	Z33	X34	Y34	Z34	X35	Y35	Z35	X36	Y36	Z36	X37	Y37	Z37	X38	Y38	Z38	X39	Y39	Z39	X40	Y40	Z40	X41	Y41	Z41	X42	Y42	Z42	X43	Y43	Z43	X44	Y44	Z44	X45	Y45	Z45	X46	Y46	Z46	X47	Y47	Z47	X48	Y48	Z48	X49	Y49	Z49	X50	Y50	Z50	X51	Y51	Z51	X52	Y52	Z52	X53	Y53	Z53	

1	0	-211.4898071289062	983.006591796875	1354.291259765625	-223.5907135009766	990.7421875	1164.580688476562	-194.4964447021484	1061.979370117188	1264.52978515625	60.79001235961914	1248.461181640625	1259.273193359375	-205.2071075439453	1180.593872070312	1262.12646484375	-166.3098449707031	1424.421508789062	1240.28955078125	-3.240858554840088	1348.673583984375	1253.15771484375	-214.9356842041016	1289.205932617188	1322.441162109375	-176.7813262939453	1386.818115234375	1136.328125	-83.94036865234375	1393.862915039062	1088.326904296875	-101.1248931884766	1275.994384765625	1013.351379394531	-79.39259338378906	1072.032958984375	1002.841003417969	-149.3085327148438	1055.58984375	1052.648559570312	2.69962739944458	853.7901611328125	1069.64697265625	-17.86344909667969	839.4581909179688	1002.977844238281	-57.94807815551758	968.5196533203125	999.4005737304688	13.92862033843994	666.0993041992188	1075.376831054688	-12.73521327972412	750.8172607421875	1009.39501953125	32.59830474853516	756.1847534179688	1057.249267578125	-97.15033721923828	1407.493530273438	1401.126708984375	-99.40336608886719	1349.776977539062	1469.74755859375	-73.29955291748047	1084.057739257812	1525.535034179688	-117.5807113647461	1071.474609375	1442.62841796875	36.61927032470703	866.535888671875	1462.934814453125	8.580018997192383	861.4452514648438	1542.433471679688	-40.48801422119141	1019.893615722656	1534.602416992188	56.74702072143555	685.2242431640625	1460.386962890625	80.21160888671875	755.8165283203125	1475.830932617188	42.41715240478516	751.05224609375	1536.09326171875	-157.7894897460938	1588.5439453125	1300.27197265625	32.10519790649414	1626.097778320312	1212.263671875	15.05998706817627	1625.263549804688	1303.597290039062	-129.5281677246094	1581.349365234375	1157.721923828125	-134.2376251220703	938.2384033203125	1083.723022460938	-111.7280502319336	945.6416015625	1458.981811523438	12.23991107940674	959.8367309570312	1386.643676757812	2.762681245803833	961.0223999023438	1136.943359375	-28.13248252868652	482.0583190917969	1104.134155273438	-48.98957061767578	623.072021484375	1087.121215820312	-173.5236968994141	47.40364837646484	1133.21875	-104.4726333618164	258.8572692871094	1109.251342773438	32.18356704711914	41.01764297485352	1195.605102539062	-38.60282516479492	32.14345169067383	1233.088256835938	-48.3863525390625	44.84807586669922	1122.100830078125	-220.6875152587891	38.47148895263672	1190.939086914062	-15.77847671508789	477.4114074707031	1433.746337890625	-23.93987655639648	741.5491333007812	1457.850463867188	-150.0800323486328	41.43872833251953	1398.6552734375	-20.55791664123535	349.627197265625	1423.612060546875	45.4981803894043	48.43906021118164	1345.370849609375	-10.45334243774414	48.70137405395508	1306.695190429688	-45.85549545288086	33.08633041381836	1418.594604492188	-200.7986145019531	44.5843620300293	1346.4375	
2	0.01	-211.6460113525391	983.0536499023438	1354.08447265625	-223.5883331298828	990.8671264648438	1164.463500976562	-194.6553497314453	1062.072143554688	1264.331787109375	60.68814468383789	1248.532836914062	1259.151245117188	-205.3648681640625	1180.5986328125	1261.959716796875	-166.514892578125	1424.400146484375	1240.248657226562	-3.375904083251953	1348.773193359375	1253.030517578125	-215.0641784667969	1289.199096679688	1322.313842773438	-176.9694061279297	1386.823608398438	1136.230590820312	-84.14340209960938	1393.943603515625	1088.23046875	-101.3154296875	1276.075805664062	1013.2119140625	-79.55769348144531	1072.140869140625	1002.646728515625	-149.4120330810547	1055.666137695312	1052.392211914062	2.552135467529297	853.8433227539062	1069.405883789062	-17.95614051818848	839.5502319335938	1002.705139160156	-58.0145263671875	968.6328735351562	999.1470336914062	13.77590942382812	666.1622314453125	1075.023681640625	-12.78802871704102	750.9192504882812	1009.053161621094	32.3859977722168	756.2227172851562	1057.004150390625	-97.39152526855469	1407.545043945312	1400.994750976562	-99.60237121582031	1349.826904296875	1469.650268554688	-73.55516052246094	1084.09716796875	1525.365844726562	-117.7751235961914	1071.504638671875	1442.3955078125	36.40735626220703	866.6659545898438	1462.583984375	8.319941520690918	861.4976196289062	1542.140869140625	-40.74193572998047	1019.928894042969	1534.38427734375	56.61940383911133	685.3419799804688	1459.892700195312	80.02996063232422	755.9054565429688	1475.410888671875	42.25592803955078	751.0946044921875	1535.611083984375	-158.0874328613281	1588.585815429688	1300.187255859375	31.78341484069824	1626.24560546875	1212.176391601562	14.72844886779785	1625.381591796875	1303.413452148438	-129.8510437011719	1581.322143554688	1157.574829101562	-134.3762359619141	938.3847045898438	1083.536987304688	-111.7224655151367	945.5848999023438	1458.70947265625	12.08731079101562	959.744140625	1386.449462890625	2.613069772720337	961.0745239257812	1136.787231445312	-28.41300582885742	482.094482421875	1104.042724609375	-49.22023773193359	623.1474609375	1086.968627929688	-173.5422668457031	47.36720275878906	1133.207641601562	-104.5595703125	258.8908386230469	1109.199584960938	32.17579650878906	41.02961730957031	1195.5986328125	-38.61248779296875	32.15896224975586	1233.078369140625	-48.39707565307617	44.83788299560547	1122.07421875	-220.7011566162109	38.44665145874023	1190.928466796875	-15.79396152496338	477.4195251464844	1433.69873046875	-24.21348190307617	741.5512084960938	1457.701904296875	-150.0925750732422	41.42829513549805	1398.657104492188	-20.5549373626709	349.6061401367188	1423.57275390625	45.48673248291016	48.44545745849609	1345.373657226562	-10.4599666595459	48.71575164794922	1306.691040039062	-45.86109924316406	33.08126068115234	1418.598754882812	-200.7973175048828	44.56695175170898	1346.431030273438	
3	0.02	-211.8317413330078	983.11767578125	1353.8203125	-223.6140289306641	991.0294799804688	1164.303955078125	-194.8572998046875	1062.195190429688	1264.077880859375	60.55112457275391	1248.63623046875	1258.990356445312	-205.5596466064453	1180.60546875	1261.750610351562	-166.7848510742188	1424.376953125	1240.18701171875	-3.55750298500061	1348.909790039062	1252.867431640625	-215.2366333007812	1289.191650390625	1322.14453125	-177.2169799804688	1386.834350585938	1136.100952148438	-84.40696716308594	1394.052001953125	1088.103515625	-101.5552520751953	1276.18701171875	1013.027648925781	-79.76410675048828	1072.284545898438	1002.39013671875	-149.5457153320312	1055.766235351562	1052.056396484375	2.353337287902832	853.910400390625	1069.08203125	-18.08559036254883	839.6727905273438	1002.339538574219	-58.10054397583008	968.7824096679688	998.8111572265625	13.56290340423584	666.2384643554688	1074.5458984375	-12.87285137176514	751.053955078125	1008.597595214844	32.10737991333008	756.2723999023438	1056.669067382812	-97.70348358154297	1407.613891601562	1400.8232421875	-99.86979675292969	1349.897338867188	1469.519775390625	-73.9075927734375	1084.149536132812	1525.142456054688	-118.0275344848633	1071.551635742188	1442.087890625	36.11170196533203	866.83544921875	1462.119995117188	7.976272106170654	861.5646362304688	1541.744140625	-41.07630157470703	1019.976379394531	1534.09765625	56.42745590209961	685.4993896484375	1459.23046875	79.77725219726562	756.025146484375	1474.843017578125	42.03342437744141	751.155029296875	1534.978637695312	-158.4844512939453	1588.64453125	1300.070922851562	31.35372924804688	1626.435302734375	1212.043701171875	14.29836463928223	1625.538696289062	1303.167724609375	-130.2734069824219	1581.290771484375	1157.381103515625	-134.5794677734375	938.573974609375	1083.290649414062	-111.7124328613281	945.5174560546875	1458.356689453125	11.89814758300781	959.6315307617188	1386.195068359375	2.414522171020508	961.1448364257812	1136.5751953125	-28.7796459197998	482.1439208984375	1103.918334960938	-49.53048706054688	623.2464599609375	1086.768920898438	-173.5655059814453	47.31921768188477	1133.192626953125	-104.6862487792969	258.938232421875	1109.13671875	32.16584014892578	41.04485321044922	1195.589721679688	-38.62480163574219	32.17919921875	1233.065673828125	-48.4105110168457	44.82468795776367	1122.040161132812	-220.7188873291016	38.41286468505859	1190.912231445312	-15.8170280456543	477.4298706054688	1433.61083984375	-24.55591201782227	741.5540771484375	1457.501220703125	-150.1055450439453	41.41873168945312	1398.653198242188	-20.55119514465332	349.5825500488281	1423.50146484375	45.473876953125	48.44511032104492	1345.369750976562	-10.46697425842285	48.72615432739258	1306.68359375	-45.86610794067383	33.07735061645508	1418.599609375	-200.7962036132812	44.54665374755859	1346.420166015625	
4	0.03	-212.032470703125	983.1987915039062	1353.509521484375	-223.6790161132812	991.223876953125	1164.105224609375	-195.0920867919922	1062.345336914062	1263.77880859375	60.38057327270508	1248.773559570312	1258.79443359375	-205.7790832519531	1180.613891601562	1261.510131835938	-167.1130065917969	1424.355590820312	1240.101684570312	-3.782646179199219	1349.082763671875	1252.674194335938	-215.4498901367188	1289.184326171875	1321.937133789062	-177.517578125	1386.852172851562	1135.941528320312	-84.72247314453125	1394.1865234375	1087.948608398438	-101.8329086303711	1276.327270507812	1012.802795410156	-80.00091552734375	1072.46142578125	1002.076965332031	-149.704833984375	1055.887573242188	1051.651611328125	2.105179786682129	853.9883422851562	1068.679565429688	-18.25265121459961	839.823486328125	1001.886352539062	-58.2039909362793	968.9650268554688	998.4002075195312	13.28771018981934	666.322998046875	1073.948852539062	-12.99666595458984	751.2180786132812	1008.036682128906	31.76996612548828	756.3323364257812	1056.244995117188	-98.07587432861328	1407.69921875	1400.6181640625	-100.2020797729492	1349.989135742188	1469.358032226562	-74.35546112060547	1084.213989257812	1524.8701171875	-118.3310470581055	1071.619140625	1441.713012695312	35.73066329956055	867.0389404296875	1461.552734375	7.556381225585938	861.6439208984375	1541.247314453125	-41.48400115966797	1020.035949707031	1533.749267578125	56.16199493408203	685.692626953125	1458.411499023438	79.45088958740234	756.1729125976562	1474.133666992188	41.74781799316406	751.2332153320312	1534.212158203125	-158.9723358154297	1588.720581054688	1299.922607421875	30.82438278198242	1626.659790039062	1211.859497070312	13.78354835510254	1625.732666015625	1302.864990234375	-130.7837066650391	1581.258666992188	1157.146118164062	-134.8515014648438	938.7997436523438	1082.99072265625	-111.6943359375	945.4457397460938	1457.934326171875	11.68394088745117	959.5071411132812	1385.887329101562	2.170386791229248	961.2325439453125	1136.30908203125	-29.22319030761719	482.206787109375	1103.762817382812	-49.9166145324707	623.366455078125	1086.527954101562	-173.5922393798828	47.26110458374023	1133.173950195312	-104.8559951782227	258.9990539550781	1109.06591796875	32.15412521362305	41.06259918212891	1195.578369140625	-38.63919067382812	32.20333862304688	1233.050659179688	-48.42593383789062	44.80904388427734	1122.000366210938	-220.7400665283203	38.37029647827148	1190.889770507812	-15.84820556640625	477.4410400390625	1433.470336914062	-24.94548034667969	741.5567016601562	1457.249145507812	-150.1166229248047	41.41264343261719	1398.640380859375	-20.54653358459473	349.5589904785156	1423.38916015625	45.46099472045898	48.43381500244141	1345.355224609375	-10.47321224212646	48.72790145874023	1306.671630859375	-45.86907958984375	33.07620239257812	1418.594360351562	-200.7953338623047	44.52508926391602	1346.404541015625	
